<?xml version="1.0" encoding="UTF-8"?>
<svg id="Layer_1" data-name="Layer 1" xmlns="http://www.w3.org/2000/svg" viewBox="0 0 24 24">
  <path d="m4.19,14.84s0,.04,0,.06c0,.01,0,.02,0,.02,0,0,0,0,0-.02,0-.01,0-.03,0-.06,0-.05.02-.12.07-.18.05-.07.13-.12.23-.15.1-.03.22-.04.34-.02.05,0,.09.01.14.03-.05.02-.09.05-.12.09-.05.02-.1.05-.15.08-.09.06-.16.15-.22.24-.1.19-.12.38-.12.52,0,.07,0,.13.01.17,0,.04.01.06.01.06,0,0,0-.02,0-.06,0-.04,0-.1.02-.16.01-.07.03-.15.06-.22.03-.08.08-.16.13-.23.02-.02.04-.05.07-.07-.03.1-.07.21-.1.32h0c-.01.07-.02.13-.03.2,0,.01,0,.03,0,.04,0,.02,0,.04-.01.06v.03s0,.02,0,.03c0,.02,0,.04,0,.06,0,.02,0,.04,0,.06h0s0,.02,0,.02c0,0,0,0,0,0h0s0,.02,0,.03c0,.02,0,.03,0,.05,0,0,0-.02,0-.02,0,.01,0,.02,0,.04,0,.03.02.06.03.09.02.06.03.1.04.13,0,.03.01.05.01.05,0,0,0-.02,0-.05,0-.03,0-.08,0-.14,0-.03,0-.06,0-.09,0-.02,0-.03,0-.05,0,0,0-.02,0-.03h0s0-.01,0,0h0s0-.02,0-.02c0-.02,0-.04,0-.06,0-.02,0-.03.01-.05,0,0,0-.02,0-.03v-.03s.02-.03.03-.04c.03-.05.07-.11.09-.16,0,0,0,0,0,0-.01.06-.03.12-.04.2,0,0,0,.02,0,.03-.03.09-.04.18-.04.27,0,.08.03.16.06.22.03.06.07.1.09.13.03.03.04.04.04.04,0,0-.01-.02-.03-.05-.02-.03-.04-.08-.06-.14,0-.02-.01-.05-.01-.07,0-.05,0-.11,0-.17.01-.06.04-.12.07-.18.04-.07.09-.14.15-.2-.02.05-.05.1-.06.16-.02.07-.04.14-.04.21,0,.07.01.13.03.18.02.05.04.08.06.11.02.02.03.04.03.04,0,0,0-.02-.02-.04,0-.03-.02-.06-.03-.11,0-.05,0-.1.01-.16,0-.03.02-.07.04-.1.11-.18.34-.21.58-.13-.02,0-.04,0-.06.02-.02,0-.03.01-.05.02-.02,0-.03.01-.05.02h-.02s-.02.02-.02.02c-.01,0-.03.02-.04.02-.05.04-.09.07-.11.11-.03.03-.05.06-.07.08-.02.02-.02.03-.02.03,0,0,.01,0,.03-.02.02-.01.05-.03.09-.06.04-.02.08-.05.13-.07.01,0,.02,0,.04-.01h.02s.02,0,.02,0c.01,0,.03,0,.04,0,.01,0,.03,0,.04,0,.03,0,.06,0,.09,0,.03,0,.06,0,.09,0,.02,0,.05,0,.07,0-.01,0-.03.01-.04.02-.09.03-.19.04-.29.07-.05.01-.1.03-.14.05-.04.02-.08.05-.1.09-.02.04-.02.07-.02.1,0,.03,0,.05.01.07,0,.02.01.03.02.04,0,.01,0,.02,0,.02,0,0,0,0,0-.02,0-.01,0-.03,0-.05,0-.02,0-.04,0-.07,0-.03.01-.06.03-.08.04-.05.12-.07.21-.08.09,0,.19,0,.31-.02h.01s0,0,0,0h0s0,0,0,0h0s0,0,0,0h.02s.04-.01.04-.01c.02,0,.06-.02.08-.03.03-.01.05-.02.08-.04.03-.01.05-.03.07-.04.09-.07.17-.15.21-.23,0,0,0,0,0,0,0,.26.03.51.13.7.08.15.32.32.54.4.11.4-.11,1.03-.27,1.35-.11.21-.35.32-.43.54-.09.25-.04.54-.08.8-.06.38-.14.71-.28,1.06-.13.31-.27.57-.27.88-.1.1-.3.08-.42.13-.17.07-.21.25-.23.4-.04.23.04.49.22.66.23.22.37.17.55-.07.12-.16.31-.38.39-.56.07-.15.02-.32.08-.47.35-.22.21-.75.32-1.07.12-.33.27-.7.48-1.01.24-.36.59-.69.86-1.04.15-.19.28-.39.44-.58.14-.16.32-.28.46-.43.04,0,.08,0,.12,0-.19.39-.29.85-.64,1.14-.39.32-.31.96-.43,1.41-.08.28-.19.56-.36.82-.17.27-.06.58-.29.84h0c-.17,0-.37-.03-.48.09-.11.12-.1.4-.03.54.08.17.33.46.55.41.22-.05.3-.4.36-.57.1-.26,0-.47.23-.67.16-.14.35-.38.29-.6,0-.06.32-.9.32-.9.32-.87.88-1.02.88-1.02,1.67-.87,2.34-2.01,2.55-2.47,2.17-.17,3.45-2.1,3.68-2.47,0,.07,0,.14,0,.2-.01.18-.06.33-.07.5-.01.24.15.63.01.86-.25-.02-.45-.02-.63.19-.2.24-.22.44-.18.74.04.24.2.43.47.49.31.06.5-.08.61-.32.1-.23.24-.42.24-.68,0-.29.24-.33.31-.58.07-.25-.06-.53-.11-.75-.03-.15-.06-.29-.08-.44.35.19.94-.23,1.23-.42.18-.12.33-.29.48-.43.1-.1.27-.28.44-.35.33.27.46.72.38,1.12-.02.11-.07.26-.04.39.02.1.12.17.14.27.04.19-.08.3-.22.4-.1.02-.2.02-.3.04-.3.03-.44.1-.52.39-.06.22-.09.57.12.72.27.19.45-.03.58-.22.14-.2.47-.25.56-.47.05-.12-.01-.25.06-.37.07-.11.19-.13.29-.2.22-.16.26-.39.19-.65-.06-.24-.15-.45-.2-.69-.05-.23-.13-.46-.22-.69-.15-.38-.1-1.15-.77-1.05-.27.04-.44.19-.67.33-.2.13-.41.13-.63.1,0-.03,0-.07,0-.11.27-.11.61-.44.74-.62.3-.41-.34-1.03-.53-1.41-.17-.34-.27-.92-.7-1.06,0-.18.01-.36.02-.53.01-.19,0-.42.11-.59.19-.27.73-.17,1.02-.02-.04.2.15.42.35.38-.04.3.27.7.53.81.38.15.68-.18.67-.52.15-.01.32-.05.42-.1.17-.08.13-.23,0-.29.18-.2.19-.52,0-.68.22-.18-.13-.41-.26-.52-.26-.23-.22-.38-.28-.67-.05-.23-.31-.31-.4-.51-.05-.11,0-.25-.08-.36-.08-.11-.22-.14-.35-.16,0,0-.01,0-.02,0,.02-.09,0-.21.04-.29.04-.1.11-.19.14-.29.05-.18.04-.59-.18-.66-.26-.09-.48.25-.59.41-.12.17-.32.28-.52.36-.29-.12-.4-.6-.68-.72-.25-.11-.23.24-.25.4-.03.21-.02.37.05.53-.1,0-.24-.01-.33-.01-.08,0-.13.01-.17.03-.02-.28-.11-.53-.4-.61l-.12-.46c.17-.12-.16-.49-.23-.61-.06-.11-.14-.25-.15-.38-.01-.11,0-.22-.02-.32l.29-.09c.06.04.13.06.21.06.2,0,.37-.15.37-.34s-.17-.34-.37-.34-.36.14-.37.32l-.24.08s-.06-.08-.11-.09c-.09-.03-.13,0-.16.06-.08-.01-.16,0-.2.04-.05-.01-.12-.02-.16,0-.06.02-.08.06-.08.11-.05,0-.13-.02-.17,0-.05.02-.06.06-.07.1-.11-.2-.24-.39-.35-.59-.07-.11-.13-.23-.2-.34-.08-.11-.27-.12-.29.03-.01.1.07.19.12.28.05.1.1.2.13.31.02.1.03.19.01.29-.01.07-.03.17-.01.25l-1.61.59s0,0,0,0c0,0,0,0,0,0h0c-.17-.4-.58-.58-.72-.63-.04-.1-.09-.21-.19-.18-.06.02-.09.09-.11.18-.14.03-.57.19-.72.79-.09.06-.19.21-.12.53,0,0,0,0,0,0l-3.87,1.55-.31.29h.45s3.93-1.45,3.93-1.45c.03.04.06.07.09.1.04.1.08.22.12.31-.09.17-.41.38-.62.47-.14-.07-.29-.17-.41-.16-.2.02-.13.29-.04.53-.43.24-.64.61-.64,1.13,0,.27-.03.54,0,.82.03.26.2.41.34.62.11.16.12.35.18.54.1.29.26.22.49.15.06.1.13.19.21.26-.03.21-.26.52-.35.69-.07.12-.18.24-.14.39.04.16.21.24.36.32l-.31,1.31c-.21.09-.47.06-.66.18-.18.12-.3.36-.38.61-.21.05-.42.13-.59.26-.4-.35-1.03-.01-1.35.34-.21.23-.28.52-.31.8-.02.13-.05.26-.12.35-.03,0-.05,0-.08,0-.04-.01-.09-.03-.13-.06-.04-.03-.09-.07-.13-.1-.02-.02-.04-.04-.06-.06-.02-.02-.04-.04-.06-.06-.04-.04-.09-.08-.13-.12-.05-.03-.09-.07-.14-.09-.05-.02-.1-.04-.14-.05-.02,0-.04,0-.07,0-.02,0-.04,0-.06,0-.02,0-.04,0-.05,0-.02,0-.03,0-.04,0-.03,0-.04,0-.06,0-.01,0-.02,0-.02,0,0,0,0,0,.02,0,.01,0,.03,0,.06,0,.05,0,.12,0,.21.03.04.01.08.03.12.06.04.03.08.06.11.09.04.04.07.08.1.12.02.02.03.04.05.07.02.02.03.05.05.07,0,0,.01.02.02.02-.04-.02-.07-.03-.11-.05-.09-.05-.19-.09-.29-.12-.09-.03-.19-.05-.27-.05-.08,0-.14,0-.19.01-.04,0-.07.01-.07.01,0,0,.03,0,.07,0,.02,0,.05,0,.08,0,.03,0,.06,0,.1.02.07.02.15.04.23.09.08.04.16.1.25.16,0,0,.02.01.03.02-.11-.02-.24-.04-.36-.04-.13,0-.27.03-.38.08-.11.05-.2.13-.24.21-.04.08-.04.16-.04.2Zm8.37-6.51l.72-.47s.02.07.04.11c-.02.03-.03.06-.05.09-.2-.11-.33.13-.5.22-.07.03-.14.05-.22.05Zm-.23-.01c.05-.25.11-.49.19-.75.04-.15.1-.28.14-.42.02-.05.02-.09.02-.12.22-.09.45-.17.63-.31.15-.12.16-.37.12-.58.13.03.25.07.37.04.15-.03.2-.19.16-.33.12.13.39.18.58.16-.17.11-.32.22-.27.4-.2.11-.43.27-.42.48-.08.06-.16.13-.22.21-.09.1-.1.17-.09.24-.06.07-.17.16-.23.24-.04.06-.05.11-.05.17l-.88.58s-.04,0-.06,0Zm-.91-3.49l.1-.32c.21-.21.25-.53.26-.76l1.56-.57s.08.08.11.11c.07.07.13.15.17.24.05.1.07.21.09.32.02.1,0,.21.08.29.11.11.26,0,.25-.13,0-.13-.03-.26-.04-.39-.03-.22-.05-.45-.07-.67.1.05.21.04.31.12.08.07.14.22.15.32.01.12,0,.25.05.36.02.06.04.1.1.14,0,0,.01,0,.02.01.01.13.04.36.07.54-.18.09-.12.3-.08.52-.14.03-.27.1-.37.21,0-.15,0-.27-.17-.35-.15-.08-.38-.08-.55-.1-.31-.04-.68-.09-1.01-.03,0-.09-.03-.2-.13-.23-.15-.04-.17.13-.22.22-.04.08-.1.16-.16.24-.16,0-.34,0-.48-.08Z"/>
</svg>